Double.Team.1997.BRrip.720p.[Dual.Audio].[Eng-Hindi]~MSBHATTI.[First On Net]

IMDB:- http://www.imdb.com/title/tt0119013/

PLOT:- Counter-terrorist Jack Quinn misses his target, Stavros, on the eve of his final mission. From there, he is sent to "The Colony", a rebirth for presumed-dead assassins. He breaks free from there, and seeks the aid of Yaz, a weapons dealer, for his final battle with Stavros.

Director: Hark Tsui
Writers: Don Jakoby (story), Don Jakoby (screenplay), and 1 more credit ┬╗
Stars: Jean-Claude Van Damme, Dennis Rodman and Mickey Rourke

INFO:-

General
Complete name                    : Double.Team.1997.BRrip.720p.[Dual.Audio].[Eng-Hindi]~MSBHATTI
Format                           : Matroska
File size                        : 2.12 GiB
Duration                         : 1h 29mn
Overall bit rate                 : 3 406 Kbps
Encoded date                     : UTC 2011-06-01 18:01:27
Writing application              : mkvmerge v3.3.0 ('Language') built on Mar 24 2010 14:59:24
Writing library                  : libebml v0.8.0 + libmatroska v0.9.0

Video
ID                               : 1
Format                           : AVC
Format/Info                      : Advanced Video Codec
Format profile                   : High@L3.1
Format settings, CABAC           : No
Format settings, ReFrames        : 4 frames
Codec ID                         : V_MPEG4/ISO/AVC
Duration                         : 1h 29mn
Bit rate                         : 2 600 Kbps
Width                            : 1 280 pixels
Height                           : 720 pixels
Display aspect ratio             : 16:9
Frame rate mode                  : Variable
Frame rate                       : 25.000 fps
Color space                      : YUV
Chroma subsampling               : 4:2:0
Bit depth                        : 8 bits
Scan type                        : Progressive
Bits/(Pixel*Frame)               : 0.113
Stream size                      : 1.64 GiB (77%)
Writing library                  : x264 core 107
Encoding settings                : cabac=0 / ref=3 / deblock=1:-1:-1 / analyse=0x3:0x133 / me=umh / subme=8 / psy=1 / psy_rd=1.00:0.00 / mixed_ref=1 / me_range=20 / chroma_me=1 / trellis=1 / 8x8dct=1 / cqm=0 / deadzone=21,11 / fast_pskip=1 / chroma_qp_offset=-2 / threads=6 / sliced_threads=0 / nr=0 / decimate=1 / interlaced=0 / constrained_intra=0 / bframes=3 / b_pyramid=2 / b_adapt=2 / b_bias=0 / direct=1 / weightb=1 / open_gop=0 / weightp=2 / keyint=240 / keyint_min=23 / scenecut=40 / intra_refresh=0 / rc_lookahead=50 / rc=abr / mbtree=1 / bitrate=2600 / ratetol=1.0 / qcomp=0.60 / qpmin=10 / qpmax=51 / qpstep=4 / ip_ratio=1.40 / aq=1:1.00
Language                         : English
Color primaries                  : BT.709-5, BT.1361, IEC 61966-2-4, SMPTE RP177
Transfer characteristics         : BT.709-5, BT.1361
Matrix coefficients              : BT.709-5, BT.1361, IEC 61966-2-4 709, SMPTE RP177

Audio #1
ID                               : 2
Format                           : AC-3
Format/Info                      : Audio Coding 3
Mode extension                   : CM (complete main)
Codec ID                         : A_AC3
Duration                         : 1h 29mn
Bit rate mode                    : Constant
Bit rate                         : 448 Kbps
Channel(s)                       : 6 channels
Channel positions                : Front: L C R, Side: L R, LFE
Sampling rate                    : 48.0 KHz
Bit depth                        : 16 bits
Compression mode                 : Lossy
Stream size                      : 286 MiB (13%)
Title                            : MSBHATTI
Language                         : English

Audio #2
ID                               : 4
Format                           : MPEG Audio
Format version                   : Version 1
Format profile                   : Layer 3
Codec ID                         : A_MPEG/L3
Codec ID/Hint                    : MP3
Duration                         : 1h 29mn
Bit rate mode                    : Constant
Bit rate                         : 256 Kbps
Channel(s)                       : 2 channels
Sampling rate                    : 48.0 KHz
Compression mode                 : Lossy
Stream size                      : 163 MiB (8%)
Title                            : MSBHATTI
Language                         : Hindi

Text
ID                               : 3
Format                           : UTF-8
Codec ID                         : S_TEXT/UTF8
Codec ID/Info                    : UTF-8 Plain Text
Title                            : MSBHATTI
Language                         : English

Screenshots:-

  
http://img535.imageshack.us/img535/4612/doubleteam1997m720phdtv.png  
http://img690.imageshack.us/img690/4612/doubleteam1997m720phdtv.png  
http://img87.imageshack.us/img87/4612/doubleteam1997m720phdtv.png  
http://img27.imageshack.us/img27/4612/doubleteam1997m720phdtv.png  
http://img543.imageshack.us/img543/4612/doubleteam1997m720phdtv.png

IF U LIKE MY WORK SO COMMENT PLZ AND SEED AS MUCH AS U CAN

THANKYOU

REGARDS

MSBHATTI	